<?xml version="1.0" encoding="UTF-8" standalone="no"?>
<!DOCTYPE svg PUBLIC "-//W3C//DTD SVG 1.1//EN"
 "http://www.w3.org/Graphics/SVG/1.1/DTD/svg11.dtd">
<!-- Generated by graphviz version 2.40.1 (20161225.0304)
 -->
<!-- Title: adfExplorer old Pages: 1 -->
<svg width="544pt" height="229pt"
 viewBox="0.00 0.00 544.40 229.20" xmlns="http://www.w3.org/2000/svg" xmlns:xlink="http://www.w3.org/1999/xlink">
<g id="graph0" class="graph" transform="scale(1 1) rotate(0) translate(4 225.2)">
<title>adfExplorer old</title>
<polygon fill="#ffffff" stroke="transparent" points="-4,4 -4,-225.2 540.397,-225.2 540.397,4 -4,4"/>
<g id="clust1" class="cluster">
<title>cluster_memory</title>
<polygon fill="#e0ffff" stroke="#000000" points="8,-136.4 8,-213.2 497,-213.2 497,-136.4 8,-136.4"/>
<text text-anchor="middle" x="252.5" y="-196.6" font-family="Helvetica,sans-Serif" font-size="14.00" fill="#000000">memory</text>
</g>
<g id="clust3" class="cluster">
<title>cluster_local_drive</title>
<polygon fill="#e0ffff" stroke="#000000" points="175,-8 175,-84.8 357,-84.8 357,-8 175,-8"/>
<text text-anchor="middle" x="266" y="-68.2" font-family="Helvetica,sans-Serif" font-size="14.00" fill="#000000">local drive</text>
</g>
<!-- adf_con -->
<g id="node1" class="node">
<title>adf_con</title>
<polygon fill="#ffffff" stroke="#000000" points="150.2498,-180.4 15.7502,-180.4 15.7502,-144.4 150.2498,-144.4 150.2498,-180.4"/>
<text text-anchor="middle" x="83" y="-158.2" font-family="Helvetica,sans-Serif" font-size="14.00" fill="#000000">Connection to ADF</text>
</g>
<!-- file_con -->
<g id="node2" class="node">
<title>file_con</title>
<polygon fill="#ffffff" stroke="#000000" points="488.8608,-180.4 323.1392,-180.4 323.1392,-144.4 488.8608,-144.4 488.8608,-180.4"/>
<text text-anchor="middle" x="406" y="-158.2" font-family="Helvetica,sans-Serif" font-size="14.00" fill="#000000">Connection to virtual file</text>
</g>
<!-- adf_con&#45;&gt;file_con -->
<g id="edge2" class="edge">
<title>adf_con&#45;&gt;file_con</title>
<path fill="none" stroke="#000000" d="M150.3182,-162.4C197.4643,-162.4 261.0705,-162.4 313.0464,-162.4"/>
<polygon fill="#000000" stroke="#000000" points="313.2782,-165.9001 323.2782,-162.4 313.2782,-158.9001 313.2782,-165.9001"/>
<text text-anchor="middle" x="236.7223" y="-169.6" font-family="Times,serif" font-size="14.00" fill="#000000">Create pointer to virtual file</text>
</g>
<!-- file_cop -->
<g id="node4" class="node">
<title>file_cop</title>
<polygon fill="#ffffff" stroke="#000000" points="349.4061,-52 266.5939,-52 266.5939,-16 349.4061,-16 349.4061,-52"/>
<text text-anchor="middle" x="308" y="-29.8" font-family="Helvetica,sans-Serif" font-size="14.00" fill="#000000">copy of file</text>
</g>
<!-- file_con&#45;&gt;file_cop -->
<g id="edge3" class="edge">
<title>file_con&#45;&gt;file_cop</title>
<path fill="none" stroke="#000000" d="M392.1668,-144.2757C375.3863,-122.2898 346.9758,-85.0663 327.8593,-60.0197"/>
<polygon fill="#000000" stroke="#000000" points="330.6122,-57.8578 321.7628,-52.0321 325.0477,-62.1048 330.6122,-57.8578"/>
<text text-anchor="middle" x="456.6985" y="-113.8" font-family="Times,serif" font-size="14.00" fill="#000000">Write file directly from</text>
<text text-anchor="middle" x="456.6985" y="-97" font-family="Times,serif" font-size="14.00" fill="#000000">the connection to local drive</text>
</g>
<!-- adf_local -->
<g id="node3" class="node">
<title>adf_local</title>
<polygon fill="#ffffff" stroke="#000000" points="248.7732,-52 183.2268,-52 183.2268,-16 248.7732,-16 248.7732,-52"/>
<text text-anchor="middle" x="216" y="-29.8" font-family="Helvetica,sans-Serif" font-size="14.00" fill="#000000">ADF file</text>
</g>
<!-- adf_local&#45;&gt;adf_con -->
<g id="edge1" class="edge">
<title>adf_local&#45;&gt;adf_con</title>
<path fill="none" stroke="#000000" d="M197.3219,-52.0321C174.2961,-74.2615 135.0316,-112.168 109.0508,-137.2502"/>
<polygon fill="#000000" stroke="#000000" points="106.537,-134.8121 101.7736,-144.2757 111.3989,-139.8482 106.537,-134.8121"/>
<text text-anchor="middle" x="233.0982" y="-105.4" font-family="Times,serif" font-size="14.00" fill="#000000">Copy file pointer to memory</text>
</g>
</g>
</svg>

