<?xml version="1.0" encoding="UTF-8" standalone="no"?>
<!DOCTYPE svg PUBLIC "-//W3C//DTD SVG 1.1//EN"
 "http://www.w3.org/Graphics/SVG/1.1/DTD/svg11.dtd">
<!-- Generated by graphviz version 2.40.1 (20161225.0304)
 -->
<!-- Title: adfExplorer old Pages: 1 -->
<svg width="463pt" height="212pt"
 viewBox="0.00 0.00 463.21 212.40" xmlns="http://www.w3.org/2000/svg" xmlns:xlink="http://www.w3.org/1999/xlink">
<g id="graph0" class="graph" transform="scale(1 1) rotate(0) translate(4 208.4)">
<title>adfExplorer old</title>
<polygon fill="#ffffff" stroke="transparent" points="-4,4 -4,-208.4 459.214,-208.4 459.214,4 -4,4"/>
<g id="clust1" class="cluster">
<title>cluster_memory</title>
<polygon fill="#e0ffff" stroke="#000000" points="8,-119.6 8,-196.4 365,-196.4 365,-119.6 8,-119.6"/>
<text text-anchor="middle" x="186.5" y="-179.8" font-family="Helvetica,sans-Serif" font-size="14.00" fill="#000000">memory</text>
</g>
<g id="clust3" class="cluster">
<title>cluster_local_drive</title>
<polygon fill="#e0ffff" stroke="#000000" points="110,-8 110,-84.8 296,-84.8 296,-8 110,-8"/>
<text text-anchor="middle" x="203" y="-68.2" font-family="Helvetica,sans-Serif" font-size="14.00" fill="#000000">local drive</text>
</g>
<!-- adf_mem -->
<g id="node1" class="node">
<title>adf_mem</title>
<polygon fill="#ffffff" stroke="#000000" points="115.7289,-163.6 16.2711,-163.6 16.2711,-127.6 115.7289,-127.6 115.7289,-163.6"/>
<text text-anchor="middle" x="66" y="-141.4" font-family="Helvetica,sans-Serif" font-size="14.00" fill="#000000">ADF file copy</text>
</g>
<!-- file_mem -->
<g id="node2" class="node">
<title>file_mem</title>
<polygon fill="#ffffff" stroke="#000000" points="356.6781,-163.6 287.3219,-163.6 287.3219,-127.6 356.6781,-127.6 356.6781,-163.6"/>
<text text-anchor="middle" x="322" y="-141.4" font-family="Helvetica,sans-Serif" font-size="14.00" fill="#000000">File data</text>
</g>
<!-- adf_mem&#45;&gt;file_mem -->
<g id="edge2" class="edge">
<title>adf_mem&#45;&gt;file_mem</title>
<path fill="none" stroke="#000000" d="M115.6629,-145.6C162.4715,-145.6 231.9901,-145.6 277.1554,-145.6"/>
<polygon fill="#000000" stroke="#000000" points="277.2443,-149.1001 287.2442,-145.6 277.2442,-142.1001 277.2443,-149.1001"/>
<text text-anchor="middle" x="201.3878" y="-152.8" font-family="Times,serif" font-size="14.00" fill="#000000">Extract file data to memory</text>
</g>
<!-- file_cop -->
<g id="node4" class="node">
<title>file_cop</title>
<polygon fill="#ffffff" stroke="#000000" points="288.0126,-52 201.9874,-52 201.9874,-16 288.0126,-16 288.0126,-52"/>
<text text-anchor="middle" x="245" y="-29.8" font-family="Helvetica,sans-Serif" font-size="14.00" fill="#000000">Copy of file</text>
</g>
<!-- file_mem&#45;&gt;file_cop -->
<g id="edge3" class="edge">
<title>file_mem&#45;&gt;file_cop</title>
<path fill="none" stroke="#000000" d="M309.285,-127.1715C296.7268,-108.9702 277.3944,-80.9508 263.2083,-60.3902"/>
<polygon fill="#000000" stroke="#000000" points="266.0383,-58.3288 257.4784,-52.0856 260.2766,-62.3042 266.0383,-58.3288"/>
<text text-anchor="middle" x="376.107" y="-97" font-family="Times,serif" font-size="14.00" fill="#000000">Write file data to local drive</text>
</g>
<!-- adf_local -->
<g id="node3" class="node">
<title>adf_local</title>
<polygon fill="#ffffff" stroke="#000000" points="183.7732,-52 118.2268,-52 118.2268,-16 183.7732,-16 183.7732,-52"/>
<text text-anchor="middle" x="151" y="-29.8" font-family="Helvetica,sans-Serif" font-size="14.00" fill="#000000">ADF file</text>
</g>
<!-- adf_local&#45;&gt;adf_mem -->
<g id="edge1" class="edge">
<title>adf_local&#45;&gt;adf_mem</title>
<path fill="none" stroke="#000000" d="M124.3699,-52.0346C110.6193,-62.5285 94.5342,-76.8233 83.8632,-92.8 78.8957,-100.2373 75.1867,-109.1864 72.475,-117.5863"/>
<polygon fill="#000000" stroke="#000000" points="69.0468,-116.8434 69.6443,-127.4214 75.7737,-118.7796 69.0468,-116.8434"/>
<text text-anchor="middle" x="181.5684" y="-97" font-family="Times,serif" font-size="14.00" fill="#000000">Copy entire virtual disk to memory</text>
</g>
</g>
</svg>

