<?xml version="1.0" encoding="UTF-8" standalone="no"?>
<svg
   viewBox="0 0 15485.314 20736"
   id="logo"
   version="1.1"
   xml:space="preserve"
   inkscape:export-xdpi="96"
   inkscape:export-ydpi="96"
   inkscape:version="1.2.2 (732a01da63, 2022-12-09)"
   sodipodi:docname="logo.svg"
   inkscape:export-filename="logop.svg"
   width="15485.314"
   height="20736"
   xmlns:inkscape="http://www.inkscape.org/namespaces/inkscape"
   xmlns:sodipodi="http://sodipodi.sourceforge.net/DTD/sodipodi-0.dtd"
   xmlns:xlink="http://www.w3.org/1999/xlink"
   xmlns="http://www.w3.org/2000/svg"
   xmlns:svg="http://www.w3.org/2000/svg"
   xmlns:rdf="http://www.w3.org/1999/02/22-rdf-syntax-ns#"
   xmlns:schema="http://schema.org/"><sodipodi:namedview
   id="namedview105"
   pagecolor="#ffffff"
   bordercolor="#000000"
   borderopacity="0.25"
   inkscape:showpageshadow="2"
   inkscape:pageopacity="0.0"
   inkscape:pagecheckerboard="0"
   inkscape:deskcolor="#d1d1d1"
   showgrid="false"
   inkscape:zoom="0.8117387"
   inkscape:cx="47.429056"
   inkscape:cy="90.546379"
   inkscape:window-width="1920"
   inkscape:window-height="991"
   inkscape:window-x="-9"
   inkscape:window-y="-9"
   inkscape:window-maximized="1"
   inkscape:current-layer="logo" />
<defs
   id="defs4"><linearGradient
     id="linearGradient991"><stop
       style="stop-color:#eea391;stop-opacity:1;"
       offset="0"
       id="stop987" /><stop
       style="stop-color:#fdfa81;stop-opacity:1;"
       offset="0.25235295"
       id="stop4079" /><stop
       style="stop-color:#c3dfa0;stop-opacity:1;"
       offset="0.5"
       id="stop5392" /><stop
       style="stop-color:#91d9ed;stop-opacity:1;"
       offset="0.75"
       id="stop7119" /><stop
       style="stop-color:#a0bedf;stop-opacity:1;"
       offset="1"
       id="stop989" /></linearGradient><style
     type="text/css"
     id="style6">
    line, polyline, path, rect, circle {
      fill: none;
      stroke: #000000;
      stroke-linecap: round;
      stroke-linejoin: round;
      stroke-miterlimit: 10.00;
    }
  </style><linearGradient
     xlink:href="#linearGradient991"
     id="linearGradient10849"
     x1="62.105"
     y1="2.743"
     x2="62.105"
     y2="141.48599"
     gradientUnits="userSpaceOnUse"
     spreadMethod="pad" /></defs><polyline
   points="2.285 37.429 2.285 106.799 62.105 141.486 121.926 106.799 121.926 37.429 62.105 2.743 2.285 37.429"
   style="mix-blend-mode:normal;fill:#ffffff;fill-opacity:1;fill-rule:nonzero;stroke:url(#linearGradient10849);stroke-width:11.5;stroke-dasharray:none;stroke-opacity:1"
   clip-path="none"
   id="polyline29"
   transform="matrix(0.94751067,0,0,0.95858784,3.4338761,2.8933862)" /><rect
   width="133.33333%"
   height="133.33333%"
   style="fill:none;stroke:none;stroke-width:1.33333;stroke-linecap:round;stroke-linejoin:round;stroke-miterlimit:10"
   id="rect6"
   x="-119.34284"
   y="-88.484215" /><rect
   x="-262.77606"
   y="-168.20638"
   width="750.78717"
   height="562.53766"
   id="rect15"
   style="stroke-width:2.51267" /><g
   transform="matrix(0.75795762,0,0,0.75795762,11.877826,16.606951)"
   id="g416"><polygon
     stroke-width="1"
     stroke="#000000"
     fill="#000000"
     points="9,109 9,81 13,75 20,69 21,65 25,58 30,55 33,54 33,72 33,10 126,10 138,22 138,95 86,95 86,100 82,108 78,113 74,116 68,125 60,129 60,140 10,140 10,109 "
     id="polygon384" /><polygon
     stroke-width="1"
     stroke="#000000"
     fill="#7777cc"
     points="64,56 62,54 53,54 52,56 45,56 45,65 35,72 35,11 58,11 58,33 113,33 113,11 125,11 136,22 136,94 127,94 127,56 "
     id="polygon386" /><polygon
     stroke-width="1"
     stroke="#000000"
     fill="#ffffff"
     points="54,66 51,63 42,70 30,76 18,85 18,84 30,75 26,74 23,71 26,73 30,74 33,72 33,54 30,56 26,58 22,65 21,69 14,75 10,81 10,108 11,109 11,139 40,139 40,118 48,118 52,114 52,95 50,92 50,82 65,69 65,57 62,55 59,55 62,58 62,65 61,66 "
     id="polygon388" /><polygon
     stroke-width="1"
     stroke="#000000"
     fill="#ffffff"
     points="52,54 60,55 61,58 61,65 54,65 50,61 "
     id="polygon390" /><polygon
     stroke-width="1"
     stroke="#000000"
     fill="#ffffff"
     points="125,94 52,94 51,92 51,82 66,69 66,57 125,57 "
     id="polygon392" /><polygon
     stroke-width="1"
     stroke="#000000"
     fill="#bbbbbb"
     points="111,11 111,32 60,32 60,11 "
     id="polygon394" /><polygon
     stroke-width="1"
     stroke="#000000"
     fill="#000000"
     points="107,14 107,28 96,28 96,14 "
     id="polygon396" /><polygon
     stroke-width="1"
     stroke="#000000"
     fill="#7777cc"
     points="105,15 105,27 98,27 98,15 "
     id="polygon398" /><polygon
     stroke-width="1"
     stroke="#000000"
     fill="#ffffff"
     points="50,57 50,59 47,63 47,57 "
     id="polygon400" /><polygon
     stroke-width="1"
     stroke="#000000"
     fill="#ffffff"
     points="57,107 65,107 65,109 69,114 73,114 73,116 67,125 59,128 59,139 41,139 41,119 48,119 53,114 53,105 "
     id="polygon402" /><polygon
     stroke-width="1"
     stroke="#000000"
     fill="#ffffff"
     points="63,105 65,103 60,98 57,98 53,100 53,95 74,95 64,105 "
     id="polygon404" /><polygon
     stroke-width="1"
     stroke="#000000"
     fill="#ffffff"
     points="53,100 58,97 53,95 "
     id="polygon406" /><polygon
     stroke-width="1"
     stroke="#000000"
     fill="#ffffff"
     points="67,109 67,106 78,95 85,95 85,100 81,108 78,112 73,113 70,113 "
     id="polygon408" /><polygon
     stroke-width="1"
     stroke="#000000"
     fill="#ffffff"
     points="77,108 73,105 68,106 68,109 70,112 72,112 76,111 "
     id="polygon410" /><polygon
     stroke-width="1"
     stroke="#000000"
     fill="#ffffff"
     points="62,106 64,103 60,99 57,99 54,101 54,104 "
     id="polygon412" /><polyline
     stroke-width="1"
     stroke="#000000"
     fill="none"
     points="126,11 137,22 137,94"
     id="polyline414" /></g>
<metadata
   id="metadata34">
  <rdf:RDF>
    <rdf:Description
   rdf:about="Based on https://commons.wikimedia.org/wiki/File:Amiga_Insert_Workbench_%28vector%29.svg by Aeroid">
      <schema:license
   rdf:resource="https://creativecommons.org/licenses/by-sa/4.0/" />
    </rdf:Description>
  </rdf:RDF>
</metadata>
<g
   aria-label="ADF"
   id="text372"
   style="font-size:40px;line-height:1.25;letter-spacing:-6.22px;word-spacing:0px"
   transform="matrix(0.81470666,0,0,0.81470666,126.99962,36.830848)"><path
     id="path378"
     style="font-weight:bold;fill:#666666;stroke-width:0.638367"
     d="m -71.58906,36.643403 -6.433546,18.303189 h 4.16435 l 1.32162,-4.338903 h 6.645503 l 1.321621,4.338903 h 2.487388 1.676961 3.484838 c 3.225081,0 5.689617,-0.797961 7.39359,-2.393878 1.245997,-1.161318 2.037113,-2.696826 2.376422,-4.601981 v 6.995859 h 3.802774 v -7.20657 h 6.184184 V 44.58559 h -6.184184 v -4.700478 h 6.645505 v -3.166901 h -10.448279 v 6.760211 c -0.328129,-1.794316 -1.08348,-3.264777 -2.276677,-4.403738 -1.64579,-1.57098 -3.956551,-2.356473 -6.932271,-2.356473 h -5.722863 v 13.475536 l -4.781521,-13.550344 z m 2.38141,2.830261 c 0.0665,0.299234 0.174554,0.706527 0.32417,1.221875 0.15793,0.515348 0.847833,2.738833 2.069707,6.67044 h -4.75035 c 1.296682,-4.197593 2.082175,-6.828371 2.356473,-7.892315 z m 10.990641,0.411448 h 2.057238 c 3.45782,0 5.186735,1.957497 5.186735,5.87248 0,3.998105 -1.861909,5.997163 -5.585714,5.997163 h -1.658259 z" /></g></svg>
